D:\school\WTK\thesis\model\3dpredictsim\Results\batch_windlass\Pog_s1_tmt_aCst_d05_k500_WL20_ig24_pas_GRF.mot
nRows=30
nColumns=19

name D:\school\WTK\thesis\model\3dpredictsim\Results\batch_windlass\Pog_s1_tmt_aCst_d05_k500_WL20_ig24_pas_GRF.mot
datacolumns 19
datarows 30
range 0.0000000000 0.3116450713
endheader
time 	ground_force_vx	ground_force_vy	ground_force_vz	ground_force_px	ground_force_py	ground_force_pz	1_ground_force_vx	1_ground_force_vy	1_ground_force_vz	1_ground_force_px	1_ground_force_py	1_ground_force_pz	ground_torque_x	ground_torque_y	ground_torque_z	1_ground_torque_x	1_ground_torque_y	1_ground_torque_z
        0.0000000000	      -93.4210113154	       76.3115596297	       30.4737000127	        0.1376340343	        0.0000000000	        0.0411809576	       95.1970826616	      460.0981893452	       -3.7377718175	       -0.3310401822	        0.0000000000	       -0.0357431604	        0.0000000000	        0.0000000000	        0.0000000000	        0.0000000000	        0.0000000000	        0.0000000000	
        0.0107463818	     -137.9539586116	      152.5679325205	       68.8958124421	        0.1481573582	        0.0000000000	        0.0400792932	       73.3823274200	      375.0446296299	       -9.7390728900	       -0.3261011314	        0.0000000000	       -0.0340100637	        0.0000000000	        0.0000000000	        0.0000000000	        0.0000000000	        0.0000000000	        0.0000000000	
        0.0214927635	      -62.6200763157	      336.2867898144	       29.2548647226	        0.1618579268	        0.0000000000	        0.0408047892	       46.2233567330	      277.7027661510	      -11.7646967464	       -0.3178879630	        0.0000000000	       -0.0304782520	        0.0000000000	        0.0000000000	        0.0000000000	        0.0000000000	        0.0000000000	        0.0000000000	
        0.0322391453	      -62.1313174213	      553.0803765219	       -1.3253490519	        0.1700602510	        0.0000000000	        0.0421332994	       21.9127416864	      189.8164246965	      -10.5038561998	       -0.3050466611	        0.0000000000	       -0.0239722848	        0.0000000000	        0.0000000000	        0.0000000000	        0.0000000000	        0.0000000000	        0.0000000000	
        0.0429855271	      -89.4621778513	      737.0349053657	      -10.5482194676	        0.1780369246	        0.0000000000	        0.0426021117	        7.5135298250	      151.1603796588	      -11.7041599050	       -0.3000754174	        0.0000000000	       -0.0210324026	        0.0000000000	        0.0000000000	        0.0000000000	        0.0000000000	        0.0000000000	        0.0000000000	
        0.0537319089	     -115.5507586212	      860.8521135722	      -12.6398858695	        0.1877833813	        0.0000000000	        0.0422764462	        4.7712217519	      115.3369158403	      -13.1688687819	       -0.2996643273	        0.0000000000	       -0.0212156540	        0.0000000000	        0.0000000000	        0.0000000000	        0.0000000000	        0.0000000000	        0.0000000000	
        0.0644782906	     -122.0475537756	      892.0784892917	      -11.1220119942	        0.1947661968	        0.0000000000	        0.0416535712	       -1.2872945371	       74.8368602138	      -12.1415731248	       -0.2994692367	        0.0000000000	       -0.0213052270	        0.0000000000	        0.0000000000	        0.0000000000	        0.0000000000	        0.0000000000	        0.0000000000	
        0.0752246724	     -113.6128045104	      865.2089739739	      -10.2467233877	        0.1988875199	        0.0000000000	        0.0411579973	       -8.9901654913	       29.2955060211	       -5.8725440964	       -0.3004072275	        0.0000000000	       -0.0210801371	        0.0000000000	        0.0000000000	        0.0000000000	        0.0000000000	        0.0000000000	        0.0000000000	
        0.0859710542	      -99.3524575231	      825.1367012509	      -10.7711641645	        0.2021113085	        0.0000000000	        0.0407755047	        0.0974906768	       -0.0977379835	        0.0048379302	        0.0000000000	        0.0000000000	        0.0000000000	        0.0000000000	        0.0000000000	        0.0000000000	        0.0000000000	        0.0000000000	        0.0000000000	
        0.0967174359	      -85.3191040003	      781.5403231174	      -12.0934124583	        0.2051619953	        0.0000000000	        0.0404946986	        0.0001750038	       -0.0001443144	       -0.0000053176	        0.0000000000	        0.0000000000	        0.0000000000	        0.0000000000	        0.0000000000	        0.0000000000	        0.0000000000	        0.0000000000	        0.0000000000	
        0.1074638177	      -72.4165794333	      741.0499225379	      -13.2771078561	        0.2082762576	        0.0000000000	        0.0403264852	        0.0000389849	       -0.0000277414	       -0.0000021300	        0.0000000000	        0.0000000000	        0.0000000000	        0.0000000000	        0.0000000000	        0.0000000000	        0.0000000000	        0.0000000000	        0.0000000000	
        0.1182101995	      -61.0397740075	      705.1811664111	      -13.8330064544	        0.2115131848	        0.0000000000	        0.0402555069	        0.0001992127	       -0.0001266647	       -0.0000131737	        0.0000000000	        0.0000000000	        0.0000000000	        0.0000000000	        0.0000000000	        0.0000000000	        0.0000000000	        0.0000000000	        0.0000000000	
        0.1289565812	      -50.6097459075	      674.6298895870	      -15.1055028139	        0.2154681957	        0.0000000000	        0.0402413456	        0.0043061222	       -0.0025077696	       -0.0003158859	        0.0000000000	        0.0000000000	        0.0000000000	        0.0000000000	        0.0000000000	        0.0000000000	        0.0000000000	        0.0000000000	        0.0000000000	
        0.1397029630	      -42.5776190493	      649.6629188776	      -16.5098700570	        0.2203998723	        0.0000000000	        0.0402476804	       -0.0263801313	        0.0143194838	        0.0020810086	        0.0000000000	        0.0000000000	        0.0000000000	        0.0000000000	        0.0000000000	        0.0000000000	        0.0000000000	        0.0000000000	        0.0000000000	
        0.1504493448	      -36.7218266560	      630.2463250086	      -17.6032626532	        0.2258816179	        0.0000000000	        0.0402524973	       -0.0246145223	        0.0126029452	        0.0020582956	        0.0000000000	        0.0000000000	        0.0000000000	        0.0000000000	        0.0000000000	        0.0000000000	        0.0000000000	        0.0000000000	        0.0000000000	
        0.1611957266	      -32.1466252147	      615.4648915016	      -18.3219239257	        0.2316185936	        0.0000000000	        0.0402500190	       -0.0159808206	        0.0077788506	        0.0014021062	        0.0000000000	        0.0000000000	        0.0000000000	        0.0000000000	        0.0000000000	        0.0000000000	        0.0000000000	        0.0000000000	        0.0000000000	
        0.1719421083	      -28.3859058535	      604.2736050833	      -18.7425103698	        0.2375044120	        0.0000000000	        0.0402344876	       -0.0123092196	        0.0057329489	        0.0011155889	        0.0000000000	        0.0000000000	        0.0000000000	        0.0000000000	        0.0000000000	        0.0000000000	        0.0000000000	        0.0000000000	        0.0000000000	
        0.1826884901	      -25.4623806494	      595.8134269192	      -18.6275621709	        0.2433503516	        0.0000000000	        0.0402082751	       -0.0122711193	        0.0054990851	        0.0011334013	        0.0000000000	        0.0000000000	        0.0000000000	        0.0000000000	        0.0000000000	        0.0000000000	        0.0000000000	        0.0000000000	        0.0000000000	
        0.1934348719	      -22.9851635824	      589.6093634678	      -18.2805051791	        0.2490862245	        0.0000000000	        0.0401693877	       -0.0157687281	        0.0068302171	        0.0014659644	        0.0000000000	        0.0000000000	        0.0000000000	        0.0000000000	        0.0000000000	        0.0000000000	        0.0000000000	        0.0000000000	        0.0000000000	
        0.2041812536	      -21.3246089358	      585.4260256853	      -17.8595684174	        0.2547179553	        0.0000000000	        0.0401137136	       -0.0248968950	        0.0104651714	        0.0023087966	        0.0000000000	        0.0000000000	        0.0000000000	        0.0000000000	        0.0000000000	        0.0000000000	        0.0000000000	        0.0000000000	        0.0000000000	
        0.2149276354	      -20.0430159766	      582.2459955323	      -17.4135376132	        0.2601012780	        0.0000000000	        0.0400499673	       -0.0451154657	        0.0184732904	        0.0041521724	        0.0000000000	        0.0000000000	        0.0000000000	        0.0000000000	        0.0000000000	        0.0000000000	        0.0000000000	        0.0000000000	        0.0000000000	
        0.2256740172	      -18.4959269523	      579.0602002808	      -17.2702063854	        0.2652620388	        0.0000000000	        0.0399775141	       -0.0870706367	        0.0348587141	        0.0079292927	        0.0000000000	        0.0000000000	        0.0000000000	        0.0000000000	        0.0000000000	        0.0000000000	        0.0000000000	        0.0000000000	        0.0000000000	
        0.2364203989	      -16.4974211189	      574.8660444110	      -17.0833508072	        0.2701748218	        0.0000000000	        0.0399033526	       -0.1673035970	        0.0657195347	        0.0150543349	        0.0000000000	        0.0000000000	        0.0000000000	        0.0000000000	        0.0000000000	        0.0000000000	        0.0000000000	        0.0000000000	        0.0000000000	
        0.2471667807	      -14.1704560762	      570.0688963290	      -17.0558131030	        0.2750099736	        0.0000000000	        0.0398146526	       -0.3040032068	        0.1175675612	        0.0270325572	        0.0000000000	        0.0000000000	        0.0000000000	        0.0000000000	        0.0000000000	        0.0000000000	        0.0000000000	        0.0000000000	        0.0000000000	
        0.2579131625	      -11.6486821970	      564.6854446976	      -16.9893913354	        0.2797623762	        0.0000000000	        0.0397113589	       -0.5021739210	        0.1918334629	        0.0440506329	        0.0000000000	        0.0000000000	        0.0000000000	        0.0000000000	        0.0000000000	        0.0000000000	        0.0000000000	        0.0000000000	        0.0000000000	
        0.2686595443	       -8.8122273206	      558.7386934930	      -16.8784607274	        0.2844532311	        0.0000000000	        0.0395893314	       -0.7411973392	        0.2805260369	        0.0638444890	        0.0000000000	        0.0000000000	        0.0000000000	        0.0000000000	        0.0000000000	        0.0000000000	        0.0000000000	        0.0000000000	        0.0000000000	
        0.2794059260	       -5.6948308057	      552.3140229747	      -16.2062084856	        0.2890826211	        0.0000000000	        0.0394527200	       -0.9803452460	        0.3685103897	        0.0822868904	        0.0000000000	        0.0000000000	        0.0000000000	        0.0000000000	        0.0000000000	        0.0000000000	        0.0000000000	        0.0000000000	        0.0000000000	
        0.2901523078	       -2.1051838813	      545.6008873912	      -14.8702669528	        0.2936469153	        0.0000000000	        0.0393018155	       -1.1871466495	        0.4439022986	        0.0956907755	        0.0000000000	        0.0000000000	        0.0000000000	        0.0000000000	        0.0000000000	        0.0000000000	        0.0000000000	        0.0000000000	        0.0000000000	
        0.3008986896	        1.8389854285	      539.1957466732	      -12.9972091198	        0.2981162046	        0.0000000000	        0.0391347371	       -1.3589713510	        0.5059390419	        0.1027622033	        0.0000000000	        0.0000000000	        0.0000000000	        0.0000000000	        0.0000000000	        0.0000000000	        0.0000000000	        0.0000000000	        0.0000000000	
        0.3116450713	        5.6576767436	      534.4831001412	      -10.8026719266	        0.3023796593	        0.0000000000	        0.0389563250	       -1.4961065341	        0.5550934573	        0.1029945029	        0.0000000000	        0.0000000000	        0.0000000000	        0.0000000000	        0.0000000000	        0.0000000000	        0.0000000000	        0.0000000000	        0.0000000000	
